<svg width="2394" height="589" viewBox="0 0 2394 589" fill="none" xmlns="http://www.w3.org/2000/svg">
<g clip-path="url(#clip0_935_2)">
<path d="M-0.833984 483V121.672H224.996V171.232H74.3613V272.062H197.896V320.402H74.3613V431.73H236.471V483H-0.833984ZM299.459 483V121.672H425.436C469.381 121.672 500.712 129.077 519.43 143.889C538.31 158.537 547.75 183.114 547.75 217.619C547.75 256.682 535.136 287.118 509.908 308.928C484.843 330.575 449.687 341.398 404.439 341.398H373.189V483H299.459ZM373.189 291.838H387.838C413.554 291.838 433.818 285.897 448.629 274.016C463.603 261.971 471.09 245.695 471.09 225.188C471.09 189.217 448.222 171.232 402.486 171.232H373.189V291.838ZM606.1 483V121.672H681.295V268.4H830.709V121.672H905.904V483H830.709V318.205H681.295V483H606.1ZM996.236 483V121.672H1071.43V483H996.236ZM1122.7 483L1263.33 121.672H1338.52L1479.15 483H1402L1364.4 386.564H1214.99L1177.39 483H1122.7ZM1233.54 338.469H1345.85L1289.69 194.426L1233.54 338.469Z" fill="black"/>
<path d="M1569.03 483V410.734H1593.59C1600.85 410.734 1606.37 412.102 1610.15 414.836C1613.96 417.57 1615.86 421.558 1615.86 426.799C1615.86 435.49 1610.08 441.643 1598.53 445.256C1612.03 448.544 1618.79 455.168 1618.79 465.129C1618.79 470.891 1616.8 475.318 1612.83 478.41C1608.89 481.47 1603.23 483 1595.84 483H1569.03ZM1583.19 440.812H1586.76C1590.99 440.812 1594.34 439.771 1596.82 437.688C1599.32 435.604 1600.58 432.772 1600.58 429.191C1600.58 425.871 1599.57 423.625 1597.55 422.453C1595.56 421.249 1591.79 420.646 1586.22 420.646H1583.19V440.812ZM1583.19 472.746H1586.42C1592.73 472.746 1597.08 472.079 1599.45 470.744C1601.86 469.377 1603.07 466.903 1603.07 463.322C1603.07 459.644 1601.46 456.584 1598.23 454.143C1595.04 451.701 1591.01 450.48 1586.12 450.48H1583.19V472.746ZM1649.21 483V452.727L1624.94 410.734H1641.54L1659.17 441.252L1677.58 410.734H1689.49L1664.25 452.629V483H1649.21ZM1733.68 483V410.734H1764.79C1775.98 410.734 1784.56 413.713 1790.52 419.67C1796.47 425.594 1799.45 434.156 1799.45 445.354C1799.45 457.268 1796.3 466.529 1789.98 473.137C1783.67 479.712 1774.83 483 1763.47 483H1733.68ZM1748.72 472.746H1759.95C1767.86 472.746 1773.75 470.565 1777.63 466.203C1781.53 461.809 1783.49 455.152 1783.49 446.232C1783.49 439.331 1781.92 433.586 1778.8 428.996C1776.65 425.839 1774.06 423.658 1771.04 422.453C1768.01 421.249 1763.6 420.646 1757.8 420.646H1748.72V472.746ZM1812.98 483V410.734H1840.03C1854.71 410.734 1862.05 416.708 1862.05 428.654C1862.05 433.114 1860.8 437.183 1858.29 440.861C1855.82 444.507 1852.4 447.307 1848.04 449.26L1871.67 483H1853.36L1835.44 453.459H1827.14V483H1812.98ZM1827.14 443.547H1830.61C1841.51 443.547 1846.96 439.136 1846.96 430.314C1846.96 423.869 1842.1 420.646 1832.36 420.646H1827.14V443.547ZM1877.53 483V467.326H1893.2V483H1877.53ZM1935.68 482.365V469.963C1943.46 473.218 1950.12 474.846 1955.65 474.846C1959.53 474.846 1962.57 473.983 1964.79 472.258C1967.03 470.533 1968.15 468.189 1968.15 465.227C1968.15 462.883 1967.45 460.913 1966.05 459.318C1964.65 457.691 1962 455.77 1958.1 453.557L1953.26 450.871C1946.78 447.225 1942.21 443.742 1939.54 440.422C1936.87 437.069 1935.54 433.163 1935.54 428.703C1935.54 422.746 1937.72 417.961 1942.08 414.348C1946.47 410.734 1952.27 408.928 1959.46 408.928C1965.22 408.928 1971.72 409.758 1978.95 411.418V422.99C1971.56 420.223 1965.71 418.84 1961.42 418.84C1958.1 418.84 1955.43 419.589 1953.41 421.086C1951.42 422.551 1950.43 424.488 1950.43 426.896C1950.43 428.882 1951.13 430.624 1952.53 432.121C1953.93 433.618 1956.57 435.458 1960.44 437.639L1965.62 440.52C1972.58 444.426 1977.38 448.023 1980.02 451.311C1982.66 454.598 1983.97 458.602 1983.97 463.322C1983.97 470.028 1981.48 475.285 1976.5 479.094C1971.52 482.902 1964.65 484.807 1955.9 484.807C1950.1 484.807 1943.37 483.993 1935.68 482.365ZM2028.55 484.807C2017.58 484.807 2008.81 481.356 2002.24 474.455C1995.66 467.554 1992.37 458.358 1992.37 446.867C1992.37 435.246 1995.68 426.018 2002.29 419.182C2008.89 412.346 2017.81 408.928 2029.04 408.928C2040.21 408.928 2049.1 412.346 2055.7 419.182C2062.34 426.018 2065.66 435.197 2065.66 446.721C2065.66 458.505 2062.34 467.798 2055.7 474.602C2049.1 481.405 2040.05 484.807 2028.55 484.807ZM2028.75 474.846C2035.2 474.846 2040.29 472.323 2044.03 467.277C2047.81 462.199 2049.7 455.331 2049.7 446.672C2049.7 438.273 2047.81 431.535 2044.03 426.457C2040.26 421.379 2035.26 418.84 2029.04 418.84C2022.76 418.84 2017.73 421.379 2013.96 426.457C2010.21 431.535 2008.34 438.322 2008.34 446.818C2008.34 455.249 2010.21 462.036 2013.96 467.18C2017.7 472.29 2022.63 474.846 2028.75 474.846ZM2079.19 483V410.734H2104.38C2113.17 410.734 2119.44 412.215 2123.18 415.178C2126.96 418.107 2128.85 423.023 2128.85 429.924C2128.85 437.736 2126.32 443.824 2121.28 448.186C2116.27 452.515 2109.24 454.68 2100.19 454.68H2093.94V483H2079.19ZM2093.94 444.768H2096.87C2102.01 444.768 2106.06 443.579 2109.02 441.203C2112.02 438.794 2113.52 435.539 2113.52 431.438C2113.52 424.243 2108.94 420.646 2099.79 420.646H2093.94V444.768ZM2140.52 483V410.734H2155.56V440.08H2185.44V410.734H2200.48V483H2185.44V450.041H2155.56V483H2140.52ZM2218.54 483V410.734H2233.58V483H2218.54ZM2243.84 483L2271.96 410.734H2287L2315.13 483H2299.7L2292.18 463.713H2262.29L2254.78 483H2243.84ZM2266.01 454.094H2288.47L2277.24 425.285L2266.01 454.094Z" fill="black"/>
<circle cx="1482.46" cy="178.456" r="49.9104" stroke="black" stroke-width="13.0913"/>
<path d="M1460.63 207.546V148.04H1484.1C1488.6 148.04 1492.43 148.844 1495.61 150.452C1498.81 152.04 1501.24 154.297 1502.9 157.222C1504.59 160.127 1505.43 163.546 1505.43 167.478C1505.43 171.43 1504.58 174.829 1502.87 177.677C1501.17 180.505 1498.7 182.674 1495.46 184.185C1492.25 185.696 1488.36 186.452 1483.78 186.452H1468.07V176.34H1481.75C1484.15 176.34 1486.15 176.011 1487.74 175.352C1489.32 174.694 1490.51 173.706 1491.28 172.389C1492.07 171.072 1492.47 169.435 1492.47 167.478C1492.47 165.503 1492.07 163.837 1491.28 162.481C1490.51 161.125 1489.31 160.098 1487.71 159.401C1486.12 158.684 1484.11 158.326 1481.69 158.326H1473.21V207.546H1460.63ZM1492.76 180.466L1507.55 207.546H1493.66L1479.19 180.466H1492.76Z" fill="black"/>
</g>
<defs>
<clipPath id="clip0_935_2">
<rect width="2394" height="589" fill="white"/>
</clipPath>
</defs>
</svg>
