<svg width="1225" height="537" viewBox="0 0 1225 537" fill="none" xmlns="http://www.w3.org/2000/svg">
<g clip-path="url(#clip0_701_2)">
<path d="M36.1328 387V97.9375H216.797V137.586H96.2891V218.25H195.117V256.922H96.2891V345.984H225.977V387H36.1328ZM276.367 387V97.9375H377.148C412.305 97.9375 437.37 103.862 452.344 115.711C467.448 127.43 475 147.091 475 174.695C475 205.945 464.909 230.294 444.727 247.742C424.674 265.06 396.549 273.719 360.352 273.719H335.352V387H276.367ZM335.352 234.07H347.07C367.643 234.07 383.854 229.318 395.703 219.812C407.682 210.177 413.672 197.156 413.672 180.75C413.672 151.974 395.378 137.586 358.789 137.586H335.352V234.07ZM521.68 387V97.9375H581.836V215.32H701.367V97.9375H761.523V387H701.367V255.164H581.836V387H521.68ZM833.789 387V97.9375H893.945V387H833.789ZM934.961 387L1047.46 97.9375H1107.62L1220.12 387H1158.4L1128.32 309.852H1008.79L978.711 387H934.961ZM1023.63 271.375H1113.48L1068.55 156.141L1023.63 271.375Z" fill="black"/>
<path d="M316.227 520V462.188H335.875C341.682 462.188 346.096 463.281 349.117 465.469C352.164 467.656 353.688 470.846 353.688 475.039C353.688 481.992 349.065 486.914 339.82 489.805C350.628 492.435 356.031 497.734 356.031 505.703C356.031 510.312 354.443 513.854 351.266 516.328C348.115 518.776 343.583 520 337.672 520H316.227ZM327.555 486.25H330.406C333.792 486.25 336.474 485.417 338.453 483.75C340.458 482.083 341.461 479.818 341.461 476.953C341.461 474.297 340.654 472.5 339.039 471.562C337.451 470.599 334.43 470.117 329.977 470.117H327.555V486.25ZM327.555 511.797H330.133C335.185 511.797 338.661 511.263 340.562 510.195C342.49 509.102 343.453 507.122 343.453 504.258C343.453 501.315 342.164 498.867 339.586 496.914C337.034 494.961 333.805 493.984 329.898 493.984H327.555V511.797ZM380.367 520V495.781L360.953 462.188H374.234L388.336 486.602L403.062 462.188H412.594L392.398 495.703V520H380.367ZM447.945 520V462.188H472.828C481.786 462.188 488.648 464.57 493.414 469.336C498.18 474.076 500.562 480.924 500.562 489.883C500.562 499.414 498.036 506.823 492.984 512.109C487.932 517.37 480.862 520 471.773 520H447.945ZM459.977 511.797H468.961C475.289 511.797 480.003 510.052 483.102 506.562C486.227 503.047 487.789 497.721 487.789 490.586C487.789 485.065 486.539 480.469 484.039 476.797C482.32 474.271 480.25 472.526 477.828 471.562C475.406 470.599 471.878 470.117 467.242 470.117H459.977V511.797ZM511.383 520V462.188H533.023C544.768 462.188 550.641 466.966 550.641 476.523C550.641 480.091 549.638 483.346 547.633 486.289C545.654 489.206 542.919 491.445 539.43 493.008L558.336 520H543.688L529.352 496.367H522.711V520H511.383ZM522.711 488.438H525.484C534.208 488.438 538.57 484.909 538.57 477.852C538.57 472.695 534.677 470.117 526.891 470.117H522.711V488.438ZM563.023 520V507.461H575.562V520H563.023ZM609.547 519.492V509.57C615.771 512.174 621.096 513.477 625.523 513.477C628.622 513.477 631.057 512.786 632.828 511.406C634.625 510.026 635.523 508.151 635.523 505.781C635.523 503.906 634.964 502.331 633.844 501.055C632.724 499.753 630.602 498.216 627.477 496.445L623.609 494.297C618.427 491.38 614.768 488.594 612.633 485.938C610.497 483.255 609.43 480.13 609.43 476.562C609.43 471.797 611.174 467.969 614.664 465.078C618.18 462.188 622.815 460.742 628.57 460.742C633.18 460.742 638.375 461.406 644.156 462.734V471.992C638.245 469.779 633.57 468.672 630.133 468.672C627.477 468.672 625.341 469.271 623.727 470.469C622.138 471.641 621.344 473.19 621.344 475.117C621.344 476.706 621.904 478.099 623.023 479.297C624.143 480.495 626.253 481.966 629.352 483.711L633.492 486.016C639.065 489.141 642.906 492.018 645.016 494.648C647.125 497.279 648.18 500.482 648.18 504.258C648.18 509.622 646.188 513.828 642.203 516.875C638.219 519.922 632.724 521.445 625.719 521.445C621.083 521.445 615.693 520.794 609.547 519.492ZM683.844 521.445C675.068 521.445 668.049 518.685 662.789 513.164C657.529 507.643 654.898 500.286 654.898 491.094C654.898 481.797 657.542 474.414 662.828 468.945C668.115 463.477 675.25 460.742 684.234 460.742C693.167 460.742 700.276 463.477 705.562 468.945C710.875 474.414 713.531 481.758 713.531 490.977C713.531 500.404 710.875 507.839 705.562 513.281C700.276 518.724 693.036 521.445 683.844 521.445ZM684 513.477C689.156 513.477 693.232 511.458 696.227 507.422C699.247 503.359 700.758 497.865 700.758 490.938C700.758 484.219 699.247 478.828 696.227 474.766C693.206 470.703 689.208 468.672 684.234 468.672C679.208 468.672 675.185 470.703 672.164 474.766C669.169 478.828 667.672 484.258 667.672 491.055C667.672 497.799 669.169 503.229 672.164 507.344C675.159 511.432 679.104 513.477 684 513.477ZM724.352 520V462.188H744.508C751.539 462.188 756.552 463.372 759.547 465.742C762.568 468.086 764.078 472.018 764.078 477.539C764.078 483.789 762.06 488.659 758.023 492.148C754.013 495.612 748.388 497.344 741.148 497.344H736.148V520H724.352ZM736.148 489.414H738.492C742.607 489.414 745.849 488.464 748.219 486.562C750.615 484.635 751.812 482.031 751.812 478.75C751.812 472.995 748.154 470.117 740.836 470.117H736.148V489.414ZM773.414 520V462.188H785.445V485.664H809.352V462.188H821.383V520H809.352V493.633H785.445V520H773.414ZM835.836 520V462.188H847.867V520H835.836ZM856.07 520L878.57 462.188H890.602L913.102 520H900.758L894.742 504.57H870.836L864.82 520H856.07ZM873.805 496.875H891.773L882.789 473.828L873.805 496.875Z" fill="black"/>
</g>
<defs>
<clipPath id="clip0_701_2">
<rect width="1225" height="537" fill="white"/>
</clipPath>
</defs>
</svg>
